{"asset":{"version":"2.0","generator":"OpenAI"},"scene":0,"scenes":[{"nodes":[0,1]}],"nodes":[{"mesh":0,"name":"AnimeLightningShell"},{"mesh":1,"name":"AnimeLightningCore"}],"meshes":[{"name":"LightningShell","primitives":[{"attributes":{"POSITION":0},"indices":1,"material":0}]},{"name":"LightningCore","primitives":[{"attributes":{"POSITION":2},"indices":3,"material":1}]}],"materials":[{"name":"BoltYellowShell","pbrMetallicRoughness":{"baseColorFactor":[1.0,0.88,0.08,1.0],"metallicFactor":0.0,"roughnessFactor":0.92},"emissiveFactor":[0.95,0.7,0.08],"doubleSided":true},{"name":"BoltWhiteCore","pbrMetallicRoughness":{"baseColorFactor":[1.0,1.0,0.98,1.0],"metallicFactor":0.0,"roughnessFactor":0.75},"emissiveFactor":[1.0,1.0,0.92],"doubleSided":true}],"buffers":[{"uri":"data:application/octet-stream;base64,","byteLength":624}],"bufferViews":[{"buffer":0,"byteOffset":0,"byteLength":168,"target":34962},{"buffer":0,"byteOffset":168,"byteLength":144,"target":34963},{"buffer":0,"byteOffset":312,"byteLength":168,"target":34962},{"buffer":0,"byteOffset":480,"byteLength":144,"target":34963}],"accessors":[{"bufferView":0,"componentType":5126,"count":14,"type":"VEC3","min":[-0.3,-1.15,-0.07],"max":[0.26,1.15,0.07]},{"bufferView":1,"componentType":5123,"count":72,"type":"SCALAR","min":[0],"max":[13]},{"bufferView":2,"componentType":5126,"count":14,"type":"VEC3","min":[-0.186,-0.713,-0.04],"max":[0.1612,0.713,0.04]},{"bufferView":3,"componentType":5123,"count":72,"type":"SCALAR","min":[0],"max":[13]}]}