{"asset":{"version":"2.0","generator":"OpenAI"},"scene":0,"scenes":[{"nodes":[0]}],"nodes":[{"mesh":0,"name":"AnimeLightningBolt"}],"meshes":[{"name":"AnimeLightningBoltMesh","primitives":[{"attributes":{"POSITION":0},"indices":1,"material":0}]}],"materials":[{"name":"BoltYellow","pbrMetallicRoughness":{"baseColorFactor":[1.0,0.9,0.12,1.0],"metallicFactor":0.0,"roughnessFactor":0.9},"emissiveFactor":[1.0,0.78,0.1],"doubleSided":true}],"buffers":[{"uri":"data:application/octet-stream;base64,","byteLength":312}],"bufferViews":[{"buffer":0,"byteOffset":0,"byteLength":168,"target":34962},{"buffer":0,"byteOffset":168,"byteLength":144,"target":34963}],"accessors":[{"bufferView":0,"componentType":5126,"count":14,"type":"VEC3","min":[-0.3,-1.15,-0.06],"max":[0.26,1.15,0.06]},{"bufferView":1,"componentType":5123,"count":72,"type":"SCALAR","min":[0],"max":[13]}]}