{"asset":{"version":"2.0","generator":"OpenAI"},"scene":0,"scenes":[{"nodes":[0,1]}],"nodes":[{"mesh":0,"name":"LightningShell"},{"mesh":1,"name":"LightningCore"}],"meshes":[{"name":"LightningShellMesh","primitives":[{"attributes":{"POSITION":0},"indices":1,"material":0}]},{"name":"LightningCoreMesh","primitives":[{"attributes":{"POSITION":2},"indices":3,"material":1}]}],"materials":[{"name":"BlueShell","pbrMetallicRoughness":{"baseColorFactor":[0.37,0.72,1.0,1.0],"metallicFactor":0.0,"roughnessFactor":0.75},"emissiveFactor":[0.22,0.58,1.0],"doubleSided":true},{"name":"WhiteCore","pbrMetallicRoughness":{"baseColorFactor":[0.97,0.99,1.0,1.0],"metallicFactor":0.0,"roughnessFactor":0.55},"emissiveFactor":[0.9,0.96,1.0],"doubleSided":true}],"buffers":[{"uri":"data:application/octet-stream;base64,","byteLength":11496}],"bufferViews":[{"buffer":0,"byteOffset":0,"byteLength":2928,"target":34962},{"buffer":0,"byteOffset":2928,"byteLength":2736,"target":34963},{"buffer":0,"byteOffset":5664,"byteLength":2928,"target":34962},{"buffer":0,"byteOffset":8592,"byteLength":2736,"target":34963},{"buffer":0,"byteOffset":11328,"byteLength":24},{"buffer":0,"byteOffset":11352,"byteLength":72},{"buffer":0,"byteOffset":11424,"byteLength":72}],"accessors":[{"bufferView":0,"componentType":5126,"count":244,"type":"VEC3","min":[-0.5273005057445442,-1.7226304195286668,-0.07458384747844873],"max":[0.49588629149379243,1.5549201258522412,0.08463679240983268]},{"bufferView":1,"componentType":5123,"count":1368,"type":"SCALAR","min":[0],"max":[243]},{"bufferView":2,"componentType":5126,"count":244,"type":"VEC3","min":[-0.5232852275850449,-1.7211836887879,-0.05556273136530194],"max":[0.4871488311722066,1.5522140566335085,0.06558655658442472]},{"bufferView":3,"componentType":5123,"count":1368,"type":"SCALAR","min":[0],"max":[243]},{"bufferView":4,"componentType":5126,"count":6,"type":"SCALAR","min":[0.0],"max":[0.52]},{"bufferView":5,"componentType":5126,"count":6,"type":"VEC3"},{"bufferView":6,"componentType":5126,"count":6,"type":"VEC3"}],"animations":[{"name":"flicker","samplers":[{"input":4,"output":5,"interpolation":"LINEAR"},{"input":4,"output":6,"interpolation":"LINEAR"}],"channels":[{"sampler":0,"target":{"node":0,"path":"scale"}},{"sampler":1,"target":{"node":1,"path":"scale"}}]}]}