{"asset":{"version":"2.0"},"buffers":[{"uri":"data:application/octet-stream;base64,","byteLength":120}],"bufferViews":[{"buffer":0,"byteOffset":0,"byteLength":72,"target":34962},{"buffer":0,"byteOffset":72,"byteLength":48,"target":34963}],"accessors":[{"bufferView":0,"componentType":5126,"count":6,"type":"VEC3","min":[-0.05,-0.05,0],"max":[0.05,0.06,1]},{"bufferView":1,"componentType":5123,"count":24,"type":"SCALAR"}],"materials":[{"pbrMetallicRoughness":{"baseColorFactor":[0.5,0.85,1,1],"metallicFactor":0,"roughnessFactor":0.55}}],"meshes":[{"primitives":[{"attributes":{"POSITION":0},"indices":1,"material":0,"mode":4}]}],"nodes":[{"mesh":0}],"scenes":[{"nodes":[0]}],"scene":0}